HIERARCHY
ROOT Hips
{
	OFFSET 0.00000 0.00000 0.00000
	CHANNELS 6 Xposition Yposition Zposition Zrotation Yrotation Xrotation 
	JOINT LHipJoint
	{
		OFFSET 0 0 0
		CHANNELS 3 Zrotation Yrotation Xrotation
		JOINT LeftHip
		{
			OFFSET 1.66553 -1.82942 0.76350
			CHANNELS 3 Zrotation Yrotation Xrotation
			JOINT LeftKnee
			{
				OFFSET 2.41740 -6.64177 0.00000
				CHANNELS 3 Zrotation Yrotation Xrotation
				JOINT LeftAnkle
				{
					OFFSET 2.71614 -7.46254 0.00000
					CHANNELS 3 Zrotation Yrotation Xrotation
					JOINT LeftToe
					{
						OFFSET 0.08005 -0.21993 1.82495
						CHANNELS 3 Zrotation Yrotation Xrotation
						End Site
						{
							OFFSET 0.00000 -0.00000 0.93441
						}
					}
				}
			}
		}
	}
	JOINT RHipJoint
	{
		OFFSET 0 0 0
		CHANNELS 3 Zrotation Yrotation Xrotation
		JOINT RightHip
		{
			OFFSET -1.63725 -1.82942 0.76350
			CHANNELS 3 Zrotation Yrotation Xrotation
			JOINT RightKnee
			{
				OFFSET -2.40538 -6.60872 0.00000
				CHANNELS 3 Zrotation Yrotation Xrotation
				JOINT RightAnkle
				{
					OFFSET -2.73312 -7.50919 0.00000
					CHANNELS 3 Zrotation Yrotation Xrotation
					JOINT RightToe
					{
						OFFSET -0.15567 -0.42769 1.93504
						CHANNELS 3 Zrotation Yrotation Xrotation
						End Site
						{
							OFFSET -0.00000 -0.00000 1.00100
						}
					}
				}
			}
		}
	}
	JOINT lowerback
	{
		OFFSET 0 0 0
		CHANNELS 3 Zrotation Yrotation Xrotation
		JOINT Chest
		{
			OFFSET 0.00326 2.30118 -0.13017
			CHANNELS 3 Zrotation Yrotation Xrotation
			JOINT Chest2
			{
				OFFSET 0.02887 2.30677 0.00834
				CHANNELS 3 Zrotation Yrotation Xrotation
				JOINT lowerneck
				{
					OFFSET 0 0 0
					CHANNELS 3 Zrotation Yrotation Xrotation
					JOINT Neck
					{
						OFFSET 0.12946 1.68326 0.00713
						CHANNELS 3 Zrotation Yrotation Xrotation
						JOINT Head
						{
							OFFSET -0.24364 1.67243 -0.16079
							CHANNELS 3 Zrotation Yrotation Xrotation
							End Site
							{
								OFFSET -0.09229 1.70819 -0.06383
							}
						}
					}
				}
				JOINT LeftCollar
				{
					OFFSET 0 0 0
					CHANNELS 3 Zrotation Yrotation Xrotation
					JOINT LeftShoulder
					{
						OFFSET 3.28104 0.69567 -0.00556
CHANNELS 3 Zrotation Xrotation Yrotation
						JOINT LeftElbow
						{
OFFSET 0 -5.707060 -0.000000
CHANNELS 3 Zrotation Xrotation Yrotation
							JOINT LeftWrist
							{
OFFSET 0 -3.332430 0.000000
CHANNELS 3 Zrotation Xrotation Yrotation
								JOINT lhand
								{
									OFFSET 0 0 0
CHANNELS 3 Zrotation Xrotation Yrotation
									JOINT LFingers
									{
OFFSET 0 -0.792690 0.000000
CHANNELS 3 Zrotation Xrotation Yrotation
										End Site
										{
OFFSET 0 -0.639090 0.000000
										}
									}
								}
								JOINT LThumb
								{
OFFSET 0 0.000000 0.000000
CHANNELS 3 Zrotation Xrotation Yrotation
									End Site
									{
OFFSET 0 -0.648840 0.648840
									}
								}
							}
						}
					}
				}
				JOINT RightCollar
				{
					OFFSET 0 0 0
					CHANNELS 3 Zrotation Yrotation Xrotation
					JOINT RightShoulder
					{
						OFFSET -3.40955 0.64424 0.14010
CHANNELS 3 Zrotation Xrotation Yrotation
						JOINT RightElbow
						{
OFFSET 0 -5.881760 -0.000000
CHANNELS 3 Zrotation Xrotation Yrotation
							JOINT RightWrist
							{
OFFSET 0 -3.281560 0.000000
CHANNELS 3 Zrotation Xrotation Yrotation
								JOINT rhand
								{
									OFFSET 0 0 0
CHANNELS 3 Zrotation Xrotation Yrotation
									JOINT RFingers
									{
OFFSET 0 -0.863130 0.000000
CHANNELS 3 Zrotation Xrotation Yrotation
										End Site
										{
OFFSET 0 -0.695870 0.000000
										}
									}
								}
								JOINT RThumb
								{
OFFSET 0 0.000000 0.000000
CHANNELS 3 Zrotation Xrotation Yrotation
									End Site
									{
OFFSET 0 -0.706500 0.706500
									}
								}
							}
						}
					}
				}
			}
		}
	}
}
MOTION
Frames: 4
Frame Time: 0.008333333333333333
10.925276 17.586247 -12.218700 0.136685 7.384902 4.447281 0.000000 0.000000 0.000000 -9.596507 -3.666432 -12.964752 2.063925 8.997975 25.788884 0.844310 -8.099882 -16.508484 3.718463 -11.775968 -34.943987 0.000000 0.000000 0.000000 13.147459 -0.167940 -11.092283 -2.490316 -9.820281 28.396705 -1.807366 0.523280 -25.287296 -0.748726 5.526851 -15.417658 2.657974 0.901987 3.992968 3.352092 1.718382 -6.369716 1.860643 0.801997 -8.999449 19.436498 9.210449 9.980353 -9.209365 14.168588 -13.269924 -6.511299 6.681240 -3.572569 0.000000 0.000000 0.000000 3.412000 19.307240 -22.110535 141.784867 -46.976122 102.877279 -11.122143 17.726953 -18.924486 0.000000 0.000000 0.000000 -7.125000 0.000000 0.000000 -36.009774 45.543899 0.557742 0.000000 0.000000 0.000000 -5.233306 16.745841 21.303754 -97.572906 -59.782033 -66.553526 -22.209678 -17.272091 -6.173262 0.000000 0.000000 0.000000 7.125000 0.000000 0.000000 3.338319 23.318695 1.747106
10.864926 17.576291 -12.226903 0.623252 7.149862 4.943650 0.000000 0.000000 0.000000 -9.957702 -3.617826 -13.282486 2.021191 8.910069 25.514450 0.871456 -7.729197 -16.724317 3.890154 -12.012137 -35.775803 0.000000 0.000000 0.000000 12.749566 0.260990 -12.118310 -2.663072 -10.128521 29.393866 -1.860487 0.803172 -25.577006 -0.583002 4.888987 -13.592224 2.100240 1.008546 3.906566 2.454980 1.759442 -6.879080 1.218261 0.819914 -9.488716 19.235374 8.596864 9.032007 -14.429341 12.512264 -14.701735 -8.147839 6.184341 -3.642698 0.000000 0.000000 0.000000 3.419775 20.707053 -21.266193 141.493706 -47.159598 102.664097 -10.913934 18.836034 -18.457354 0.000000 0.000000 0.000000 -7.125000 0.000000 0.000000 -35.584332 45.181040 0.183157 0.000000 0.000000 0.000000 -4.032665 17.115760 22.174992 -97.173980 -59.804628 -66.208811 -21.927532 -17.077939 -6.454376 0.000000 0.000000 0.000000 7.125000 0.000000 0.000000 3.548093 23.030202 1.880709
10.814187 17.581694 -12.210736 0.237942 7.607321 4.955319 0.000000 0.000000 0.000000 -9.332687 -3.854508 -13.142050 1.959859 8.781988 25.115694 0.853753 -7.517520 -16.541094 4.058802 -12.238256 -36.580080 0.000000 0.000000 0.000000 13.467955 0.169481 -11.855373 -2.596550 -10.011383 29.013554 -1.872796 0.584064 -25.728864 -0.555628 4.774678 -13.267099 2.273789 0.838813 3.556898 2.268208 1.515951 -6.887458 0.956004 0.682102 -9.276740 18.429945 8.314806 7.313651 -17.413342 11.442134 -13.825067 -8.849232 5.876059 -3.073912 0.000000 0.000000 0.000000 2.972261 21.079708 -20.958915 141.498784 -47.156441 102.667844 -12.006108 18.860196 -18.471146 0.000000 0.000000 0.000000 -7.125000 0.000000 0.000000 -36.471285 45.051618 0.053895 0.000000 0.000000 0.000000 -3.667832 16.653128 22.828283 -97.128053 -59.807171 -66.169094 -21.509029 -17.160470 -6.756682 0.000000 0.000000 0.000000 7.125000 0.000000 0.000000 3.857337 22.727337 2.072104
10.795513 17.595258 -12.177385 0.646374 7.585283 5.181251 0.000000 0.000000 0.000000 -9.747217 -3.786829 -12.918173 1.863464 8.575678 24.476701 0.808578 -7.680133 -16.126411 3.847859 -11.954744 -35.572729 0.000000 0.000000 0.000000 13.092966 0.358804 -11.909667 -2.603606 -10.023849 29.054110 -1.881263 0.260176 -25.888134 -0.703023 5.359079 -14.935636 1.864969 0.762866 3.208700 2.054716 1.357534 -7.093489 0.980834 0.624789 -9.297721 17.807802 8.179213 6.967382 -18.725648 11.161542 -11.900672 -9.065222 5.857906 -2.439871 0.000000 0.000000 0.000000 2.769884 20.906426 -20.701894 141.430910 -47.198869 102.618087 -11.874921 19.464429 -18.580771 0.000000 0.000000 0.000000 -7.125000 0.000000 0.000000 -36.426746 45.159784 0.166645 0.000000 0.000000 0.000000 -3.369371 16.519150 23.188557 -96.995192 -59.814262 -66.054279 -21.681938 -17.194861 -6.696410 0.000000 0.000000 0.000000 7.125000 0.000000 0.000000 3.729977 22.783065 1.998672
